<svg width="751" height="284" viewBox="0 0 751 284" fill="none" xmlns="http://www.w3.org/2000/svg">
<g clip-path="url(#clip0_40_15)">
<rect width="751" height="284" fill="white"/>
<path d="M315.5 36L315 55L180 233H200.5L255 156H268L280.5 174.5L264.5 165.5L221.5 233H248H285L307 204L274 156H339.5L438.5 36V55L358 156H411L342 244.5H333L317.5 233H334.5L358.5 203.5L387 168H349L295 244.5L129.75 243L156 209.5L153.25 233H160L315.5 36Z" fill="black"/>
<path d="M335 167L315.5 192L295 167H335Z" fill="white"/>
<path d="M533.5 36.6916L521 47.1916L441 155.883H624L718 35.6916V54.6916L573.5 244.192H563.5L534.5 167.579L467.5 210.579L451.5 232.383H484.5L529.5 180.579L494.5 243.883L426.5 243.815L476 168.068H434L384.5 232.383H410.5L430.5 221.579L416 243.883L359 243.815L416 167.579L413.5 155.883H424.5L514 36.6916H533.5Z" fill="black"/>
<path d="M614.053 167L571.553 225L550 167H614.053Z" fill="white"/>
<path d="M517 167L478 190L492.461 167H517Z" fill="white"/>
<path d="M184.986 35.9999V54.3771L49.5 232.5H110L162.42 166.608H121.301L102 174.5L118.796 155.334H188L121 243.5L22 242.548L184.986 35.9999Z" fill="black"/>
</g>
<defs>
<clipPath id="clip0_40_15">
<rect width="751" height="284" fill="white"/>
</clipPath>
</defs>
</svg>
